<svg id="f6c30bcd-2d21-47f9-b704-9f4a8e0fa698" data-name="Слой 1" xmlns="http://www.w3.org/2000/svg" width="72.52" height="74.01" viewBox="0 0 72.52 74.01"><path d="M33.61,50.56s0,.06,0,.1V67.72a.68.68,0,0,0,.67.68.69.69,0,0,0,.68-.68V50.66a.38.38,0,0,1,0-.1,2.26,2.26,0,0,1-1.33,0Z" fill="#e0e1e2"/><path d="M5.27,67.34a3.71,3.71,0,0,1,.67.06.13.13,0,0,1,0-.06V57.24c0-.22-.31-.39-.68-.39s-.67.17-.67.39v10.1s0,0,0,.06A3.68,3.68,0,0,1,5.27,67.34Z" fill="#e0e1e2"/><path d="M63.27,67.34a3.71,3.71,0,0,1,.67.06.13.13,0,0,1,0-.06V57.24c0-.22-.31-.39-.68-.39s-.67.17-.67.39v10.1s0,0,0,.06A3.68,3.68,0,0,1,63.27,67.34Z" fill="#e0e1e2"/><rect y="63.01" width="11" height="11" rx="2" fill="#2ab675"/><rect x="29" y="63.01" width="11" height="11" rx="2" fill="#fe6d6e"/><rect x="58" y="63.01" width="11" height="11" rx="2" fill="#c5cee2"/><path d="M34.11,58H63.27a.68.68,0,1,0,0-1.35H34.11a2.26,2.26,0,0,1,0,1.33Z" fill="#e0e1e2"/><path d="M34.34,57.29a2.52,2.52,0,0,1,.09-.67H5.27a.68.68,0,0,0,0,1.35H34.43A2.5,2.5,0,0,1,34.34,57.29Z" fill="#e0e1e2"/><path d="M44.41,18.65l0,0L46,16l-1.9-1.09-1.55,2.69,0,0a13.6,13.6,0,0,1,1.85,1.06Z" fill="#f45858"/><path d="M24.54,18.65a13.8,13.8,0,0,1,1.9-1.1h0l-1.59-2.77-2,1.12,1.59,2.78Z" fill="#f45858"/><circle cx="34.5" cy="34.24" r="18.94" fill="#3ea2e5"/><circle cx="34.5" cy="34.24" r="14.56" fill="#dfeef4"/><circle cx="34.5" cy="34.24" r="2.4" fill="#f45858"/><path d="M30.88,8.87h7.24V12H30.88Z" fill="#f45858"/><path d="M32.92,12v3.33H33c.5,0,1-.07,1.51-.07s1,0,1.51.07h.07V12Z" fill="#f45858"/><path d="M35.17,19.7v2.39a.67.67,0,1,1-1.34,0V19.7l.67,0Z" fill="#080808"/><path d="M35.17,46.4v2.39H33.83V46.4a.67.67,0,0,1,1.34,0Z" fill="#080808"/><path d="M49.06,34.24c0,.23,0,.45,0,.68H46.65a.68.68,0,0,1-.67-.68.67.67,0,0,1,.67-.67H49C49.05,33.79,49.06,34,49.06,34.24Z" fill="#080808"/><path d="M23,34.24a.68.68,0,0,1-.67.68H20c0-.23,0-.45,0-.68s0-.45,0-.67h2.39A.67.67,0,0,1,23,34.24Z" fill="#080808"/><path d="M28.69,24.34a.66.66,0,0,1-.33.09.68.68,0,0,1-.58-.33L26.57,22a10.35,10.35,0,0,1,1.16-.68l1.21,2.06A.68.68,0,0,1,28.69,24.34Z" fill="#080808"/><path d="M42.43,46.46c-.37.24-.76.46-1.16.67l-1.21-2.06a.68.68,0,0,1,.25-.92.66.66,0,0,1,.91.24h0Z" fill="#080808"/><path d="M47.39,27.47l-2.06,1.21a.67.67,0,1,1-.68-1.16h0l2.06-1.21C47,26.69,47.18,27.07,47.39,27.47Z" fill="#080808"/><path d="M24.35,41l-2.06,1.21c-.24-.38-.47-.76-.68-1.16l2.06-1.21A.67.67,0,1,1,24.35,41Z" fill="#080808"/><path d="M42.37,22l-1.2,2.07a.67.67,0,0,1-.58.34.59.59,0,0,1-.34-.1.67.67,0,0,1-.25-.91h0l1.19-2.07C41.6,21.52,42,21.75,42.37,22Z" fill="#080808"/><path d="M29,45.1,27.8,47.17c-.4-.2-.79-.43-1.17-.67l1.2-2.07a.68.68,0,0,1,.92-.25.67.67,0,0,1,.24.92Z" fill="#080808"/><path d="M47.43,41c-.21.4-.43.78-.68,1.16l-2.07-1.2a.67.67,0,0,1,.68-1.16Z" fill="#080808"/><path d="M24.56,28.49a.67.67,0,0,1-.92.25l-2.07-1.2c.21-.4.43-.78.68-1.16l2.07,1.19A.67.67,0,0,1,24.56,28.49Z" fill="#080808"/><path d="M44,33.57H36.8a2.32,2.32,0,0,1,0,1.33H44a.68.68,0,0,0,0-1.35Z" fill="#080808"/><path d="M34.5,31.85a2.44,2.44,0,0,1,.66.09.28.28,0,0,0,0-.09V24.78a.67.67,0,0,0-1.34,0v7.07a.28.28,0,0,0,0,.09A2.44,2.44,0,0,1,34.5,31.85Z" fill="#080808"/><path d="M45.45,3H47.6a4.12,4.12,0,0,1,2.17.44,1.54,1.54,0,0,1,.67,1.38,1.65,1.65,0,0,1-.33,1,1.45,1.45,0,0,1-.94.53v0a1.93,1.93,0,0,1,1.12.57,1.72,1.72,0,0,1,.36,1.15A1.88,1.88,0,0,1,50,9.74a2.94,2.94,0,0,1-1.9.55H45.45Zm1.18,3h1.15a1.92,1.92,0,0,0,1.08-.24A.89.89,0,0,0,49.2,5a.81.81,0,0,0-.36-.74A2.36,2.36,0,0,0,47.66,4h-1Zm0,1V9.3H47.9A1.85,1.85,0,0,0,49,9a1.06,1.06,0,0,0,.38-.9A1,1,0,0,0,49,7.27,2.06,2.06,0,0,0,47.84,7Z" fill="#fa0"/><path d="M56.26,10.29h-4.1V3h4.1V4H53.34V6h2.74V7H53.34V9.29h2.92Z" fill="#fa0"/><path d="M60.33,10.29H59.15V4.06H57V3h5.46v1H60.33Z" fill="#fa0"/><path d="M68.08,10.29l-.73-2H64.58l-.71,2H62.62L65.33,3h1.29l2.72,7.28Zm-1-3-.68-2c0-.13-.12-.34-.2-.62S66,4.17,66,4a10.27,10.27,0,0,1-.4,1.34l-.65,1.89Z" fill="#fa0"/><path d="M70,13.31H44.77a2.51,2.51,0,0,1-2.5-2.5V2.5A2.5,2.5,0,0,1,44.77,0H70a2.5,2.5,0,0,1,2.5,2.5v8.31A2.51,2.51,0,0,1,70,13.31ZM44.77,1a1.5,1.5,0,0,0-1.5,1.5v8.31a1.5,1.5,0,0,0,1.5,1.5H70a1.5,1.5,0,0,0,1.5-1.5V2.5A1.5,1.5,0,0,0,70,1Z" fill="#fa0"/></svg>